<?xml version="1.0" encoding="utf-8"?>
<!-- Generator: Adobe Illustrator 23.0.2, SVG Export Plug-In . SVG Version: 6.00 Build 0)  -->
<svg version="1.1" id="logo" xmlns="http://www.w3.org/2000/svg" xmlns:xlink="http://www.w3.org/1999/xlink" x="0px" y="0px"
	 viewBox="0 0 1220 480" style="enable-background:new 0 0 1220 480;" xml:space="preserve">
<style type="text/css">
	.st0{fill:transparent;
			-webkit-animation: enchino 5s forwards 8s;
			-moz-animation: enchino 5s forwards 8s;
			-o-animation: enchino 5s forwards 8s;
			animation: enchino 5s forwards 8s;
	}
	.st1{fill:transparent;
			-webkit-animation: o 5s forwards 9s;
			-moz-animation: o 5s forwards 9s;
			-o-animation: o 5s forwards 9s;
			animation: o 5s forwards 9s;
	}
	.st2{fill:transparent;
			-webkit-animation: japn 5s forwards 6s;
			-moz-animation: japn 5s forwards 6s;
			-o-animation: japn 5s forwards 6s;
			animation: japn 5s forwards 6s;
	}
	.st3{fill:transparent;
			-webkit-animation: descubre 5s forwards 5s;
			-moz-animation: descubre 5s forwards 5s;
			-o-animation: descubre 5s forwards 5s;
			animation: descubre 5s forwards 5s;
	}
	.st4{
		fill:none;
		stroke:#fff;
		stroke-width:4;
		stroke-dasharray: 3400;
		stroke-dashoffset: 0;
		stroke-miterlimit:10;
		-webkit-animation: animacion 10s forwards;
		-moz-animation: animacion 10s forwards;
		-o-animation: animacion 10s forwards;
		animation: animacion 10s forwards;
		}
	.st5{fill:transparent;
			-webkit-animation: marco 5s forwards 7s;
			-moz-animation: marco 5s forwards 7s;
			-o-animation: marco 5s forwards 7s;
			animation: marco 5s forwards 7s;
	}

	@-webkit-keyframes animacion {
			0% {
				stroke-dashoffset: 3400;
			}
			90% {
				stroke: #fff;
			}

			100% {
				stroke-dashoffset: 0;
				stroke: transparent;
			}
		}

		@-keyframes animacion {
			0% {
				stroke-dashoffset: 3400;
			}
			90% {
				stroke: #fff;
			}

			100% {
				stroke-dashoffset: 0;
				stroke: transparent;
			}
		}
		@-webkit-keyframes marco {
			from {
				fill: transparent;
			}

			to {
				fill: #fff;
			}
		}

		@-keyframes marco {
			from {
				fill: transparent;
			}

			to {
				fill: #fff;
			}
		}
		@-webkit-keyframes descubre {
			from {
				fill: transparent;
			}

			to {
				fill: #fff;
			}
		}

		@-keyframes descubre {
			from {
				fill: transparent;
			}

			to {
				fill: #fff;
			}
		}
		@-webkit-keyframes japn {
			from {
				fill: transparent;
			}

			to {
				fill: #fff;
			}
		}

		@-keyframes japn {
			from {
				fill: transparent;
			}

			to {
				fill: #fff;
			}
		}
		@-webkit-keyframes enchino {
			from {
				fill: transparent;
			}

			to {
				fill: #fff;
			}
		}

		@-keyframes enchino {
			from {
				fill: transparent;
			}

			to {
				fill: #fff;
			}
		}
		@-webkit-keyframes o {
			from {
				fill: transparent;
			}

			to {
				fill: #ff0000;
			}
		}

		@-keyframes o {
			from {
				fill: transparent;
			}

			to {
				fill: #ff0000;
			}
		}
</style>
<path id="chinoN" class="st0" d="M248.5,398.2c-0.1,0.1-0.3,0.1-0.4,0.1c-0.4,0-0.7-0.2-1-0.4c-5.2,1.7-12.7,4.5-18.3,6.9
	c0.1,1.6,0.2,3.3,0.2,5.3c0,2.2-0.1,4.6-0.2,7.3l-5,0.3c0.2-2.4,0.3-5.6,0.3-8.2c0-1,0-2-0.1-2.7c-7.7,3.7-13.9,8.3-13.9,12.4
	c0,3.9,4.7,5.8,14.1,5.8c6.6,0,12.7-0.1,17-0.7l0.1,4.5c-4,0.4-10.1,0.5-17.1,0.5c-13,0-18.8-3.1-18.8-10.1c0-6,7.9-11.7,18.1-16.8
	c-0.4-4.3-2.3-6.4-5-6.4c-5,0-10.1,2.8-16.2,9.6c-1.9,2.1-4.6,4.8-7.5,7.4l-3.3-3.3c6.8-6,13.2-11.7,17.1-25.1l-3.8,0.1h-11.3v-4.4
	c4.1,0.1,9,0.1,11.7,0.1l4.6-0.1c0.7-3.1,1.4-6,1.8-9.7l6.7,0.8c-0.1,0.7-0.7,1.1-1.7,1.2c-0.5,2.7-1.1,5.1-1.7,7.5
	c4.6-0.1,14.5-1.2,23.4-3.9l0.8,4.6c-8.5,2.6-18.7,3.6-25.5,3.8c-1.6,5.1-3.3,9.2-4.9,11.5h0.1c3-2.6,7.5-4.4,10.9-4.4
	c4.6,0,7.5,3.3,8.4,8.8c5.7-2.6,12.9-5.4,18.3-7.5L248.5,398.2z M309.4,372.8c-0.2,0.3-0.7,0.5-1.4,0.4c-2.5,2.4-6.5,5.6-9.7,8
	c1.4,2,3.1,3.9,4.8,5.7c3.5-2.6,7.7-6.5,10.3-9.2l4.1,3.1c-0.3,0.3-0.9,0.4-1.4,0.3c-2.6,2.4-6.9,5.8-10.4,8.4
	c3.9,3.5,8.5,6.4,13.3,8.3c-1,1-2.4,2.6-3.1,3.9c-3.5-1.6-6.9-3.6-10-6v2.6h-8.6v10.8h16.7v4.3h-16.7V425c0,2.2,0.4,2.5,2.9,2.5h8.4
	c2.2,0,2.6-1.4,2.9-8.9c1,0.8,2.9,1.6,4.1,1.9c-0.5,8.8-1.7,11.2-6.7,11.2h-9.3c-5.6,0-7-1.4-7-6.7v-11.7h-13.1
	c-1.1,7.5-5.2,14.5-18.9,19.4c-0.5-1.1-1.9-2.8-2.9-3.6c12-4.1,16-9.8,17.1-15.8h-15.8v-4.3h16.2v-10.8h-7.6V396
	c-3.3,2.5-6.8,4.6-10.3,6.2c-0.6-1.1-1.9-2.6-2.9-3.5c4.8-2,9.8-5.3,14.1-9.4c-2.2-2.2-5.7-5.3-8.7-7.5l2.9-2.4
	c2.9,2,6.5,4.9,8.6,7.1c2.8-3.1,5.2-6.5,6.9-10.2h-17.9v-4.1h20.4l0.8-0.3c1.8,1,2.5,1.4,3.2,1.6c-0.1,0.3-0.4,0.6-0.7,0.7
	c-2.9,7.7-8,14.3-14,19.6h33.4c-6.9-6-12.4-14.1-16-23.2l4-1.2c1.2,3.1,2.7,6.1,4.5,8.9c3.1-2.5,6.7-5.9,9-8.5L309.4,372.8z
	 M292.7,408.9v-10.8h-12.8v10.8H292.7z M348.8,411.9c-0.1,0.5-0.6,0.8-1.4,0.9c-1.8,9.7-5.8,16.3-21.8,19.6c-0.4-1.1-1.6-3.1-2.5-4
	c14.7-2.6,18.3-7.9,19.7-17L348.8,411.9z M363.9,425c0,2,0.5,2.4,3.7,2.4h10.8c2.9,0,3.4-1.3,3.7-9.8c1,0.8,3,1.6,4.2,1.9
	c-0.5,9.8-1.8,12.3-7.5,12.3h-11.5c-6.2,0-7.9-1.4-7.9-6.7v-15.6h-26.2v-37.8h43.3v37.8h-12.4V425z M337.5,375.6v7.4h34.2v-7.4
	H337.5z M337.5,386.7v7.5h34.2v-7.5H337.5z M337.5,397.9v7.6h34.2v-7.6H337.5z M424.5,380.3c-0.1-1.5-0.3-8.9-0.4-10.6l7,0.3
	c-0.1,0.5-0.5,1.2-1.8,1.4c0,0.8,0,1.6,0.1,8.8c8.4-0.3,17.1-0.5,22.2-0.5v4.7c-5.8-0.1-14,0-22.1,0.3c0.1,5.3,0.3,10.2,0.5,13.9
	c0.7,2.2,0.8,4.3,0.8,7.1c0,2.2-0.2,4.7-0.7,6.6c-1.8,7.9-7.6,14.9-19.6,19.7c-0.9-1.2-2.4-2.9-3.5-3.9c10.4-3.7,16-9.4,17.7-15.8
	h-0.1c-1.4,2-3.9,3.6-7,3.6c-6,0-11.4-5-11.4-11.9c-0.1-7.2,5.8-12.7,12.2-12.7c2.4,0,5,0.9,6.3,2.1c0-1.2-0.1-5.7-0.3-8.6
	c-7.1,0.1-28.5,0.9-31.3,1l-0.1-4.5l15.5-0.4L424.5,380.3z M425.8,404.2c0-2.6,0-8.8-6.9-8.8c-4.7,0.1-8,3.7-8.1,8.6
	c0,4.8,3.6,7.9,7.5,7.9C423.2,411.9,425.8,408.1,425.8,404.2z M475.8,398.9c4.5-2.3,11.5-3.9,16.8-3.9c10.8,0,17.6,6.3,17.6,16.3
	c0,12.3-10.8,19.1-24.4,19.1c-8.8,0-14.9-3.5-14.9-9.5c0-5,5-9.1,11.1-9.1c7.7,0,12.8,6.1,13.9,12.3c5.4-2,9.4-6.4,9.4-12.7
	c0-7.3-5.4-12-14-12c-10.2,0-20.2,4.6-24.6,8.9c-2,1.9-4.7,4.8-6.5,6.9l-3.5-3.5c6.1-6.4,25.5-24.9,34.8-33.5
	c-3.9,0.5-17.5,1.1-25.3,1.4c-0.2,0.5-0.9,0.9-1.4,1l-0.5-5.8c9.2-0.1,26.7-0.7,31.6-1.5l1-0.5l3.6,4.4c-0.3,0.3-1,0.5-1.6,0.6
	C494,381.7,481.1,393.8,475.8,398.9L475.8,398.9L475.8,398.9L475.8,398.9z M485.2,426.1c2,0,4.4-0.3,6.2-0.7
	c-0.7-5.2-4.6-9.6-9.6-9.6c-3.5,0-6.7,1.9-6.7,5C475.1,425,480.7,426.1,485.2,426.1z"/>
<path id="ChinoR" class="st1" d="M909.7,307.2c-3-7-3.8-15.6-2.2-25.6c2.9-22.1,12.9-39.9,30.1-53.3c17.2-13.5,37.3-12.1,60.3,4.1
	c14.4,10.5,23.8,25.8,28.5,45.7c4.6,19.9,4.5,39.3-0.2,58.1c-4.8,18.8-14.2,34.6-28.4,47.2c-14.1,12.6-32.6,17-55.4,13.2
	c-18-3-29.2-14.3-33.5-33.8C904.6,343.3,904.9,324.8,909.7,307.2z M918.3,310.7c-1.4,10.7,0.2,23.1,4.8,37
	c4.6,14,13.8,21.8,27.5,23.5c16.6,2,28.5-1.8,35.7-11.5c7.2-9.7,11.3-21.4,12.4-35c1.1-13.6-0.2-27.4-3.8-41.3
	c-3.7-13.9-7.9-24.2-12.7-30.9c-6.5-8.5-12.8-11.4-18.7-8.5c-5.9,2.8-10.9,7.9-15,15.2c-4.1,7.3-7.1,15-9.1,23.2
	c-2,8.2-2.3,13.5-0.8,15.8L918.3,310.7z M1018.9,184.3l-1.4-21.6c-32.3,7.7-44,40-44,40C1002.8,176.6,1018.9,184.3,1018.9,184.3z
	 M66.9,373.6h44.1v57.2h-4.8v-4.1H71.5v4.5h-4.7L66.9,373.6L66.9,373.6z M106.2,378.2H71.5v19.5h34.6V378.2z M71.5,422h34.6v-19.9
	H71.5V422z M183.7,388.5h-24.8c5.8,12.1,16,23.3,27.1,28.6c-1.2,1-2.6,2.7-3.5,4c-10.7-5.8-20.3-16.6-26.5-28.9v22.3h13.6v4.6H156
	v13.2h-4.8V419h-13.8v-4.6h13.8v-22.1c-6.4,12.3-16.2,22.9-26.4,28.9c-0.8-1.2-2.2-2.9-3.3-3.7c10.7-5.5,20.8-16.9,26.8-29h-24.5
	v-4.6h27.4v-14.7l6.1,0.3c-0.1,0.5-0.4,0.8-1.4,1v13.4h27.7L183.7,388.5L183.7,388.5z"/>
<path id="japn" class="st2" d="M653.2,217.4c-1.1,13.6-2,31.6-2.5,54.1c-0.6,22.5-2.2,44.9-4.8,67.3c-2.6,22.3-7,42.3-13,60
	c-6.1,17.7-15.1,28.3-27,32c-10.7,3.3-22.9,1.4-36.7-5.9c-13.8-7.3-24.3-16.3-31.5-27l-4.8-9.5c10.4,4.8,21.6,10.9,33.6,18.2
	c12,7.3,21.8,8.7,29.2,4.1c7.4-4.5,12.8-15.4,16-32.8c3.3-17.3,5.3-36.7,6.2-58.1c0.9-21.4,1.2-42.3,0.8-62.8
	c-0.3-20.4-0.3-35.7,0-45.7L653.2,217.4z M747.7,230.4c-2.6,3.7-5,7.2-7.3,10.5c-2.3,3.4-4.4,6.5-6.3,9.5l13.2-5.3
	c2.7,7.5,6.2,23.8,10.5,48.7c7,0,11.5,0.2,13.4,0.5l12.7,4.5c-7.8,3.9-11.6,5.8-11.5,5.8c0.2,0-4,1.3-12.4,4
	c2.5,16.7,4.2,33.2,5,49.3c0.8,16.2,0.4,27.2-1.2,33.3l-3.6,6.3c-3.2-4.5-5.1-7.9-5.9-10.2c-0.7-2.3-1.7-6.1-3-11.4
	c-1.9-6.5-4.3-15.2-7.1-26c-2.8-10.8-5.6-21.9-8.5-33.3c-8.5,3.2-16.9,6.7-25.4,10.5c-8.5,3.9-15.2,8-20.1,12.3
	c-4.6,13.4-8.9,27.4-12.9,41.9c-2.4,8-3.6,12.1-3.6,12.3s-2,4.2-6,12.1c-1.9-7.7-3-12.1-3.2-13.1c-0.2-1-0.2-5.4,0.1-13.3
	c0-16.1,1.7-32.9,5-50.5l-10.3-7.3c6.5-4.7,11.3-8,14.4-9.8c8.6-33.3,23.2-66.6,43.8-99.9L747.7,230.4z M730.2,296.7
	c-3.5-11.4-6.5-20.2-9.1-26.6c-5.6,9.7-10.9,20.2-16,31.4C713.4,299.6,721.8,298,730.2,296.7z M823.8,258.3
	c-1.4,3.9-2.7,12.3-3.8,25.4c-1.1,13.1-2.1,25.8-2.9,38.2c2.9-1,6.8-1.8,11.7-2.5c21.2-3.7,34.4-10.6,39.6-20.8
	c5.2-10.2,4.8-20-1.1-29.5c-5.9-9.5-16.1-16.7-30.5-21.8c-14.4-5.1-30.8-4.5-49.2,1.9l-10-26.1c32.4-9,58.6-8.5,78.6,1.5
	c20,10,32.7,22.8,38,38.4c5.3,15.6,2.9,30.3-7.4,44.3c-10.3,14-29.5,20.3-57.8,19c-4.6,0-8.7-0.7-12.2-2
	c-3.5,14.2-3.6,30.2-0.4,47.9c3.3,17.7,3.6,26.6,1.1,26.6c-6.5-5.2-12-14.9-16.4-29.2c-4.4-14.3-7.5-29.5-9.5-45.6
	c-1.9-16.1-2.7-31.2-2.4-45.4c0.3-14.2,2.3-23.8,6-28.6L823.8,258.3z M1092.2,226.1c-1.8,3.9-3.6,10.9-5.5,21.1l6-1.8
	c5.6,19.9,12.4,40.8,20.3,62.8c8,21.9,16,42.7,24.2,62.3c-1.9-23.9-2.6-52.9-1.9-87c0.6-34.1,2.3-56.1,5-66.1l31.3,12
	c-1.9,4.5-3.9,14.1-6,28.9c-2.1,14.7-4.1,30.8-6.1,48.3c-2,17.5-3.9,34.4-5.7,50.7c-1.8,16.3-3.4,28.2-4.7,35.8
	c-0.8,4.2-2.2,8.2-4.1,12c-7.5-9.5-18.3-25.9-32.3-49.1c-14-23.2-25.5-44.1-34.5-62.9c-2.7,16.4-5.3,32.4-7.7,48.1
	c-2.4,15.7-4.2,27.4-5.5,35.3c-1.1,6.4-1.9,10.7-2.4,13.1c-0.5,2.3-1.9,6.5-4.3,12.6l-3.6-9.3c-2.1-6.9-3.2-18.8-3.5-35.9
	c-0.2-17.1,0-35.1,0.8-54c0.8-18.9,2-36.8,3.7-53.6c1.7-16.8,3.5-28.7,5.4-35.5L1092.2,226.1z"/>
<path id="descubre" class="st3" d="M62,161.3h-2.9v-3V60.9v-3H62h35h0.1c22.6,2.1,39.6,25.1,37.4,51.7c2.2,26.6-14.8,49.6-37.4,51.7
	h-0.1h-0.1L62,161.3L62,161.3z M64.9,155.2h31.8c19.6-1.8,33.9-22.4,32.1-45.6v-0.3c1.9-23-12.5-43.5-32.1-45.3H64.9V155.2z
	 M203.8,143l4.6,3.7c-4.4,6.4-12.5,14.8-27.6,14.6c-17.6,0-31.9-16.1-31.9-36.5c0-20.4,14.4-36.5,31.9-36.5
	c17.4,0,31.9,16.1,31.9,36.5v3h-2.9h-55c1.3,15.4,12.2,27.4,26,27.4C193.4,155.4,200,148.5,203.8,143z M154.9,121.7H207
	c0-13.7-11.6-27.4-26.1-27.4C167.1,94.4,156.2,106.4,154.9,121.7z M275.9,107.9h-5.8c0-7.9-9-13.5-18.7-13.5s-18.7,5.6-18.7,13.5
	c0,14.9,45.8,12.5,45.7,33.8c0,10.2-11.2,19.6-27,19.6s-27-9.4-27-19.6h5.8c0,8.1,10.3,13.5,21.2,13.5s21.2-5.5,21.2-13.5
	c0-15.1-45.5-12.3-45.7-33.8c0-10.3,10.4-19.6,24.5-19.6C265.5,88.3,275.9,97.5,275.9,107.9z M342.8,143.7l4.6,3.3
	c-4.1,6.2-11.6,14.3-26,14.3c-17.3,0-31.5-16.1-31.5-36.5c0-20.4,14.2-36.5,31.5-36.5c14.4,0,22,7.3,26,13.4l-4.6,3.3
	c-3.3-4.9-9.6-10.6-21.3-10.6c-14.4,0-25.7,13.7-25.7,30.4s11.3,30.4,25.7,30.4C333.2,155.2,339.3,148.7,342.8,143.7z M362.5,91.3
	l0.1-2.9h5.9l-0.1,3l-0.1,42.8c0,11.7,10.2,21,22.3,21c12.2,0,22.2-9.3,22.2-21V91.3l0.1-2.9h5.9l-0.1,3l-0.1,42.8
	c0,14.8-12.3,27.1-28,27.1c-15.7,0-28.1-12.3-28.1-27.1L362.5,91.3L362.5,91.3L362.5,91.3z M438.9,124.9V57.8v-3h5.8v3v46
	c5.8-9.4,15.4-15.5,26.1-15.5c17.4,0,31.9,16.1,31.9,36.5c0,20.4-14.5,36.5-31.9,36.5c-10.7,0-20.3-6.1-26.1-15.5v12.5v3h-5.8v-3
	V124.9z M444.7,124.9c0,16.6,11.6,30.3,26.1,30.3s26.1-13.7,26.1-30.4c0-16.7-11.6-30.4-26.1-30.4C456.3,94.4,444.7,108,444.7,124.9
	z M525.9,102.1c5.8-9.1,15.7-13.8,27.3-13.8h2.9v6.1h-2.9c-15.8,0-27.1,10.6-27.3,29.7v0.8v3v30.4v3h-5.8v-3v-30.4v-3
	c0-0.3,0-0.5,0-0.8V91.3v-3h5.8v3V102.1z M618.2,143l4.6,3.7c-4.4,6.4-12.5,14.8-27.6,14.6c-17.6,0-31.9-16.1-31.9-36.5
	c0-20.4,14.4-36.5,31.9-36.5c17.4,0,31.9,16.1,31.9,36.5v3h-2.9h-55c1.3,15.4,12.2,27.4,26,27.4C607.7,155.4,614.4,148.5,618.2,143z
	 M569.3,121.7h52.1c0-13.7-11.6-27.4-26.1-27.4C581.5,94.4,570.6,106.4,569.3,121.7z M701.1,124.8c0-20.4,14.5-36.5,31.9-36.5
	c10.7,0,20.3,6.1,26.1,15.5v-46v-3h5.8v3v67v33.5v3h-5.8v-3v-12.5c-5.8,9.4-15.4,15.5-26.1,15.5
	C715.7,161.3,701.1,145.2,701.1,124.8z M706.9,124.8c0,16.7,11.6,30.4,26.1,30.4s26.1-13.7,26.1-30.4c0-16.7-11.6-30.4-26.1-30.4
	C718.6,94.4,706.9,108,706.9,124.8z M837.2,143l4.6,3.7c-4.4,6.4-12.5,14.8-27.6,14.6c-17.5,0-31.9-16.1-31.9-36.5
	c0-20.4,14.4-36.5,31.9-36.5c17.4,0,31.9,16.1,31.9,36.5v3h-2.9h-55c1.3,15.4,12.2,27.4,26,27.4C826.8,155.4,833.4,148.5,837.2,143z
	 M788.3,121.7h52.1c0-13.7-11.6-27.4-26.1-27.4C800.5,94.4,789.6,106.4,788.3,121.7z"/>
<path id="contornoR" class="st5" d="M7.7,475.5H1208V5.5H7.3L7.7,475.5z M1183.6,451.5H32.1v-422h1151.5V451.5z"/>
<path id="contorno_1_" class="st4" d="M7.7,475.5H1208V5.5H7.3L7.7,475.5z M1183.6,451.5H32.1v-422h1151.5V451.5z"/>
</svg>
